<svg viewBox="0 0 56.52 30.075862068965517" xmlns="http://www.w3.org/2000/svg" data-name="Layer 1" id="Layer_1" style="max-height: 500px" width="56.52" height="30.075862068965517"><defs><style>.cls-1{fill:#ffbf3c;}.cls-2{fill:#2a1c55;}</style></defs><path d="M53.8,14.77c0,.36-.29.68-.33,1-1.1,1-2.73.24-3.75-.4.18.83,1,1,1.25,1.78-.21.53-.52,1.15-1.06,1.26-.84.17-1.11-.58-1.91-.73a4.17,4.17,0,0,0-1.12.07,5.74,5.74,0,0,1-1,.13c-.45-.06-.83-.57-1.19-.79s-1-.56-1.58-.86a4.64,4.64,0,0,0-1.71-.66c-.87.13-1,2.21-1,3a4.26,4.26,0,0,0,.72,2c.37.65,1,2.31,1.74,2.82.31.21.6.49.79.59a14.92,14.92,0,0,1,2.9,1.38c.74.58,0,2.29-.86,2.18-.71-.09-4.4.1-5.14,0a8.77,8.77,0,0,1-3.29-1.78,14.6,14.6,0,0,1-2.4-2.22c-.59-.78-1-1.82-1.58-2.51-.26.08-.31.36-.73.27A6.92,6.92,0,0,1,32,22c-.3.36-.81,1.62-.22,2,2.71,1.53,2.89,2.92,1.87,3-.73.08-1.32.13-2.31.25-.56.06-2.05-.07-2.24-.07-1.31,0-1.31,0-2-.42-.87-.53-1.5-1.74-1.8-4.57-.29-.46-.07-2.53-.59-2.75a2.37,2.37,0,0,0-1.39.33,2.81,2.81,0,0,0-2,.2c-.53.37-.7,1-1.06,1.65a2,2,0,0,0-.17,1.19c.05.85-.2.59,1,1.51,2.76.79,3.26,2,2.71,2.51s-2,.46-3.83.46-4.65.13-5.47-.33a6.29,6.29,0,0,1-.4-.73c-1.73-1.32-1-3.44-2.57-4.94a6.49,6.49,0,0,0-1.25.66c-.16.11-.31.38-.53.53s-.73.25-1,.46-.46.55-.86.59a1.66,1.66,0,0,1,.79,1.19c.36.41,1.17.73,1.12,1.38,0,.36-.18,1-1.25.92C7.82,27,5.65,27,5,27c-1.53.11-3.31,0-3.63-.85a5.56,5.56,0,0,1-.06-.79,13.86,13.86,0,0,0-.73-2c-.21-.65-.28-1.3-.59-2.05a5.61,5.61,0,0,1,.72-1.31c.28-.38.75-.64.93-1.06a7.87,7.87,0,0,0,.26-1.38,18.89,18.89,0,0,0,0-2.38,28.73,28.73,0,0,1-.26-3.49,6.81,6.81,0,0,1,.2-.73A5.42,5.42,0,0,1,2,10.22,10.85,10.85,0,0,1,3.49,8.44C4,7.79,4.48,7.21,5,6.66A12.14,12.14,0,0,1,6.92,5.28,18,18,0,0,1,9.63,3.5a10.58,10.58,0,0,1,3-.79,30.4,30.4,0,0,1,4.16-.6c1,0,2.05.08,3.1,0s2.12-.39,3.23-.59c.54-.1,1.06-.2,1.58-.33s1-.35,1.45-.46C26.82.56,27.58.57,28.22.4c.39-.11.7-.43,1.25-.4a16.13,16.13,0,0,1,4.22.6c.45.13.88.35,1.32.46a17.57,17.57,0,0,1,3.5,1.45C40,3.22,40.86,4,42.73,3.63a9,9,0,0,0,1.05-.2c.85-.32,1.4-1,2.18-.72a1.13,1.13,0,0,1,.46.46c.25.42.13,1.58.79,1.71s1.54-.86,2.44-.33a1.59,1.59,0,0,1,.53,1c0,.7-.4.63-.33,1.45a3.48,3.48,0,0,0,.59,1.19A5.25,5.25,0,0,1,51,9.3,9.31,9.31,0,0,0,51.3,11a6.48,6.48,0,0,0,1.05,1.58,8.93,8.93,0,0,1,.93,1c.08.14.07.48.19.72s.31.15.33.53" class="cls-1"/><path d="M74.29,21.46c0,1.69-.07,3.2,0,3.9a30,30,0,0,1-5.8.6c-4.22,0-6.38-2.26-6.38-8.27,0-5.53,2.59-8.27,7.7-8.27a39,39,0,0,1,4.58.25,28.21,28.21,0,0,0-.69,3.62h-.26a3.71,3.71,0,0,0-3.24-1.82c-2.21,0-4.11,1.08-4.11,6.25,0,3.09.54,6.08,2.77,6.08a2.68,2.68,0,0,0,1.45-.22c.28-.17.32-1.59.34-2.6a6.16,6.16,0,0,0-.43-2.78v-.1a15.49,15.49,0,0,0,2.16.07c.74,0,1.54,0,2.17-.07A26.52,26.52,0,0,0,74.29,21.46Z" class="cls-2"/><path d="M86,19.78C86,24,84.6,26,80.86,26s-5-1.76-5-6.2c0-3.58,1-6.23,5.21-6.23C84,13.53,86,14.57,86,19.78Zm-5-4.59c-1.22,0-1.39,1.49-1.39,4.62,0,3.34.35,4.49,1.28,4.49s1.32-1.18,1.32-4.54C82.25,16.66,82.05,15.19,81,15.19Z" class="cls-2"/><path d="M89.8,25.77c-.74,0-1.39,0-2.19.07A56.36,56.36,0,0,0,88,17.19c0-3.85,0-7.93-.58-8.53V8.54c.56,0,1.34,0,2.14,0a21.09,21.09,0,0,0,2.31-.24c-.13,1.13-.24,5.84-.24,8.94,0,3.31,0,7.16.35,8.65C91.35,25.79,90.53,25.77,89.8,25.77Z" class="cls-2"/><path d="M100.18,26c-.28,0-.63-.46-.63-1.35A7.81,7.81,0,0,1,95.94,26c-1.9,0-2.6-1.66-2.6-5.46,0-5.4,1.74-7,4.37-7a4.59,4.59,0,0,1,1.93.32c0-1.35.06-4-.59-5.19V8.54c1.11,0,1.63,0,2.41-.08a14,14,0,0,0,2.05-.21c-.15,2.59-.28,4.92-.28,9.08,0,3.29-.07,7.33.52,7.74v.14A14.34,14.34,0,0,1,100.18,26ZM99.6,15.84a1.22,1.22,0,0,0-1-.58c-1.12,0-1.49,1.25-1.49,4.09,0,2.59.15,4.25,1.25,4.25a1.58,1.58,0,0,0,1.19-.5c0-.94,0-2.19,0-3.87S99.62,16.18,99.6,15.84Z" class="cls-2"/><path d="M109,26c-2.19,0-3.88-.53-3.88-5.6s1.54-6.83,5.11-6.83c3,0,4,1.21,3.81,6.4-1.73.14-3.42.24-5.15.5-.18,2.72.8,3.27,2.2,3.27a5.47,5.47,0,0,0,2.9-.91l.18,1.73A10.58,10.58,0,0,1,109,26Zm1.21-10.89c-.7,0-1.32,1-1.32,3.7a13.7,13.7,0,0,0,2-.12C111,16.15,110.84,15.07,110.22,15.07Z" class="cls-2"/><path d="M123.78,25.77c-.61,0-1.1,0-2.16.07a46,46,0,0,0,.23-5.72c0-.67.05-1.52,0-2.43,0-1.27-.29-1.66-1-1.66a3.16,3.16,0,0,0-1.4.51c0,.67,0,1.15,0,3.75a37.65,37.65,0,0,0,.21,5.55c-.91-.07-1.55-.07-2-.07s-1.06,0-2.14.07a36.83,36.83,0,0,0,.28-5.84c0-2.07.07-5.46-.47-6.13v-.14a26.05,26.05,0,0,0,4.13-.34v1.32a9.32,9.32,0,0,1,4-1.18c1.23,0,2,.8,2,2.6,0,1.42,0,3,0,4a28.12,28.12,0,0,0,.3,5.75C124.67,25.77,124.62,25.77,123.78,25.77Z" class="cls-2"/><path d="M138.64,25.84c-1.23,0-2.36-.07-3.09-.07-1.15,0-1.28,0-2.73.07a76.49,76.49,0,0,0,.33-8c0-4.69-.07-6.92-.5-8.17V9.55c2.1.07,2.77.07,3.76.07s2.75-.07,3.55-.07c3,0,3.81,1.75,3.81,3.46s-.69,3.77-3.36,4.25v.07c2.6.14,3.94,1.3,3.94,3.87C144.35,24.08,142.71,25.84,138.64,25.84Zm1.19-12.31c0-1.85-.73-2.06-1.79-2.06a8.42,8.42,0,0,0-1.06,0c0,1.27-.07,4.32-.07,4.85l.91,0c1.45,0,2-.89,2-2.86Zm-2.92,5v2.41c0,2.16.5,2.88,1.26,2.88,1.1,0,2.2-.34,2.2-2.59,0-1.88-.56-2.77-2.33-2.77A9.07,9.07,0,0,0,136.91,18.48Z" class="cls-2"/><path d="M149.48,26c-2.19,0-3.87-.53-3.87-5.6s1.53-6.83,5.1-6.83c3,0,4,1.21,3.81,6.4-1.73.14-3.42.24-5.15.5-.17,2.72.8,3.27,2.21,3.27a5.53,5.53,0,0,0,2.9-.91l.17,1.73A10.55,10.55,0,0,1,149.48,26Zm1.21-10.89c-.69,0-1.32,1-1.32,3.7a13.91,13.91,0,0,0,2.06-.12C151.51,16.15,151.32,15.07,150.69,15.07Z" class="cls-2"/><path d="M161.48,26c-.49,0-.67-.6-.71-1.11A5.74,5.74,0,0,1,157.35,26c-1.38,0-1.66-1.64-1.66-3.15,0-4.06,1.81-4,5.15-4.59,0-.34,0-1,0-1.27,0-.7-.07-1.35-1.17-1.35a3.84,3.84,0,0,0-3,1.9h-.19a30.79,30.79,0,0,0,.19-3.27,19.57,19.57,0,0,1,5.3-.7,2.24,2.24,0,0,1,2.47,2.55c0,1.25,0,2.48-.07,3.7s0,3.13,0,3.56a3.31,3.31,0,0,0,.49,1.8v.1A14.71,14.71,0,0,1,161.48,26Zm-2.61-3.61c0,1,.28,1.4.75,1.4a1.58,1.58,0,0,0,1.13-.51c0-.84,0-1.85,0-3.43C159,20.09,158.87,20.67,158.87,22.35Z" class="cls-2"/><path d="M173.9,17.28h-.19a1.87,1.87,0,0,0-1.5-.74,2,2,0,0,0-1.49.5c-.06.46,0,2.36,0,3.34s.06,4.52.47,5.46c-.65-.07-1.53-.07-2.22-.07s-1.24,0-2.21.07a37,37,0,0,0,.32-6.11c0-1,.05-5.45-.6-5.88v-.12a23,23,0,0,0,4.22-.32l0,1.57s.07,0,.09,0a3.25,3.25,0,0,1,2.83-1.45,2.06,2.06,0,0,1,.76.15C174.2,14.33,174,16.11,173.9,17.28Z" class="cls-2"/><path d="M182.49,25.77c-.78,0-1.32,0-2.36.07a66.15,66.15,0,0,0,.33-8.12c0-2.34,0-6.32-.65-8.1V9.55c1.45.07,1.73.07,2.51.07.6,0,1.21,0,2.22-.07a71.3,71.3,0,0,0-.32,8.24,56.15,56.15,0,0,0,.43,8.05C183.77,25.79,183.27,25.77,182.49,25.77Z" class="cls-2"/><path d="M195,25.77c-.6,0-1.1,0-2.16.07a45.81,45.81,0,0,0,.24-5.72c0-.67,0-1.52,0-2.43,0-1.27-.28-1.66-1-1.66a3.15,3.15,0,0,0-1.41.51c0,.67,0,1.15,0,3.75a36.07,36.07,0,0,0,.22,5.55c-.91-.07-1.56-.07-2-.07s-1.05,0-2.14.07a36.83,36.83,0,0,0,.28-5.84c0-2.07.07-5.46-.47-6.13v-.14a25.86,25.86,0,0,0,4.13-.34v1.32a9.32,9.32,0,0,1,4-1.18c1.24,0,2,.8,2,2.6,0,1.42,0,3,0,4a28.12,28.12,0,0,0,.3,5.75C195.88,25.77,195.83,25.77,195,25.77Z" class="cls-2"/><path d="M201.74,26c-1.25,0-2.94-.15-3.83-.22a27.18,27.18,0,0,0,.41-3.44h.16a3.8,3.8,0,0,0,2.83,1.64c.78,0,1.23-.41,1.23-1s0-.89-1.84-2a4.21,4.21,0,0,1-2.42-4c0-1.52.67-3.37,4.2-3.37a25.39,25.39,0,0,1,3.18.22,30.06,30.06,0,0,0-.41,3.27h-.2a2.67,2.67,0,0,0-2.16-1.47,1,1,0,0,0-1.13,1c0,.62.15,1.22,2,2.21a3.56,3.56,0,0,1,2.21,3.46C205.94,24,205.38,26,201.74,26Z" class="cls-2"/><path d="M206.74,13.73a21.44,21.44,0,0,0,4.17-.27c-.15,2.79-.17,7.43-.15,8.34,0,1.27.28,1.66,1,1.66a3.15,3.15,0,0,0,1.41-.51c0-.67,0-1.15,0-3.74s.07-4.11-.35-5.36v-.12a26.34,26.34,0,0,0,4.09-.27c-.11,3-.11,2.53-.11,5.48,0,2.31-.13,5.26.26,6.35a15.85,15.85,0,0,0-4,.67V24.85A8.81,8.81,0,0,1,209.1,26c-1.24,0-2-.8-2-2.6,0-1.42.06-6.2.06-6.44a5.74,5.74,0,0,0-.45-3.07Z" class="cls-2"/><path d="M226,17.28h-.19a1.87,1.87,0,0,0-1.5-.74,2,2,0,0,0-1.49.5c-.06.46,0,2.36,0,3.34s.06,4.52.47,5.46c-.64-.07-1.53-.07-2.22-.07s-1.24,0-2.21.07a37,37,0,0,0,.32-6.11c0-1,0-5.45-.6-5.88v-.12a23,23,0,0,0,4.22-.32l0,1.57s.06,0,.08,0a3.25,3.25,0,0,1,2.84-1.45,2,2,0,0,1,.75.15C226.31,14.33,226.12,16.11,226,17.28Z" class="cls-2"/><path d="M232.39,26c-.49,0-.67-.6-.71-1.11A5.74,5.74,0,0,1,228.26,26c-1.38,0-1.66-1.64-1.66-3.15,0-4.06,1.81-4,5.14-4.59,0-.34,0-1,0-1.27,0-.7-.07-1.35-1.17-1.35a3.84,3.84,0,0,0-3,1.9h-.19a30.79,30.79,0,0,0,.19-3.27,19.52,19.52,0,0,1,5.3-.7,2.24,2.24,0,0,1,2.47,2.55c0,1.25,0,2.48-.07,3.7s0,3.13,0,3.56a3.41,3.41,0,0,0,.5,1.8v.1A14.71,14.71,0,0,1,232.39,26Zm-2.61-3.61c0,1,.28,1.4.75,1.4a1.59,1.59,0,0,0,1.13-.51c0-.84,0-1.85,0-3.43C229.86,20.09,229.78,20.67,229.78,22.35Z" class="cls-2"/><path d="M245.78,25.77c-.6,0-1.1,0-2.16.07a44,44,0,0,0,.24-5.72c0-.67,0-1.52,0-2.43,0-1.27-.28-1.66-.95-1.66a3.15,3.15,0,0,0-1.41.51c0,.67,0,1.15,0,3.75a36.07,36.07,0,0,0,.22,5.55c-.91-.07-1.56-.07-2-.07-.59,0-1.06,0-2.14.07a38.11,38.11,0,0,0,.28-5.84c0-2.07.06-5.46-.48-6.13v-.14a25.86,25.86,0,0,0,4.13-.34v1.32a9.33,9.33,0,0,1,4-1.18c1.23,0,2,.8,2,2.6,0,1.42,0,3,0,4a27.86,27.86,0,0,0,.31,5.75C246.67,25.77,246.63,25.77,245.78,25.77Z" class="cls-2"/><path d="M252.9,26c-2.55,0-3.72-1-3.72-5.75,0-5.19,2.1-6.68,5.69-6.68a24.48,24.48,0,0,1,2.77.17c-.18,1-.37,2.41-.44,3.15H257a2.1,2.1,0,0,0-1.95-1.25c-1.21,0-2.12,1-2.12,4.13s.63,4,1.91,4a4,4,0,0,0,2.48-.89l.24,1.83A7.72,7.72,0,0,1,252.9,26Z" class="cls-2"/><path d="M262.25,26c-2.19,0-3.88-.53-3.88-5.6s1.54-6.83,5.11-6.83c3,0,4,1.21,3.8,6.4-1.73.14-3.41.24-5.14.5-.18,2.72.8,3.27,2.2,3.27a5.47,5.47,0,0,0,2.9-.91l.17,1.73A10.51,10.51,0,0,1,262.25,26Zm1.21-10.89c-.7,0-1.32,1-1.32,3.7a13.7,13.7,0,0,0,2.05-.12C264.28,16.15,264.08,15.07,263.46,15.07Z" class="cls-2"/><path d="M284.59,25.45a11.7,11.7,0,0,1-4.15.51c-4.52,0-6.79-2.36-6.79-8.27,0-5.12,2-8.27,7.18-8.27,1.79,0,2.92.08,4.26.2-.15.86-.39,2.83-.43,3.67h-.29a3,3,0,0,0-3.09-1.8c-1.69,0-3.59.75-3.59,6.18,0,4.66,1.54,6.22,3.66,6.22a6,6,0,0,0,3.39-1.2h.31C284.89,23.48,284.72,24.44,284.59,25.45Z" class="cls-2"/><path d="M296.08,19.78c0,4.21-1.41,6.18-5.15,6.18s-5-1.76-5-6.2c0-3.58,1-6.23,5.22-6.23C294.07,13.53,296.08,14.57,296.08,19.78Zm-5-4.59c-1.21,0-1.38,1.49-1.38,4.62,0,3.34.34,4.49,1.27,4.49s1.32-1.18,1.32-4.54C292.31,16.66,292.12,15.19,291.1,15.19Z" class="cls-2"/><path d="M312.28,25.77c-.5,0-1.06,0-2.06.07a51.78,51.78,0,0,0,.26-6.37c0-3,0-3.44-1.1-3.44a3.42,3.42,0,0,0-1.47.53c0,1.37,0,2.6,0,3.37a44.43,44.43,0,0,0,.26,5.91c-1-.07-1.54-.07-2.17-.07s-1,0-2,.07c.17-1.35.23-4.38.23-6.08,0-3.34,0-3.73-.88-3.73a3.83,3.83,0,0,0-1.67.53c0,1.11,0,2.14,0,3.32a48,48,0,0,0,.26,6,17,17,0,0,0-2.16-.07c-.63,0-1,0-2,.07.21-1.9.21-4.69.24-6.23,0-1.73.06-4.71-.57-5.79l0-.09a34.13,34.13,0,0,0,4.27-.22l-.05,1.27a12.07,12.07,0,0,1,4.07-1.25,1.78,1.78,0,0,1,2,1.25,12.35,12.35,0,0,1,4.28-1.25c1.54,0,2,1.06,2.1,2.65,0,.57,0,3.51,0,4.37a26.8,26.8,0,0,0,.28,5.29C313.53,25.79,313.12,25.77,312.28,25.77Z" class="cls-2"/><path d="M321.84,26a3,3,0,0,1-1.66-.46,23.65,23.65,0,0,0,.56,5.14c-1.13-.07-1.6-.07-2.4-.07s-1.32,0-2.32.07a56.66,56.66,0,0,0,.48-8.09c0-4.21.13-7.67-.54-8.7v-.12a30.82,30.82,0,0,0,4.35-.29,5.75,5.75,0,0,0-.11,1.27,9.71,9.71,0,0,1,3.89-1.18c1.45,0,2.25,1.21,2.25,4.74C326.34,22.59,325.56,26,321.84,26Zm-.3-9.93a2.53,2.53,0,0,0-1.34.46c-.09.58-.07,2.33-.07,3.75a24.18,24.18,0,0,0,.09,3.05,1.15,1.15,0,0,0,.89.6c1.42,0,1.47-2.5,1.47-4.28C322.58,17,322.4,16,321.54,16Z" class="cls-2"/><path d="M333.35,26c-.5,0-.67-.6-.71-1.11A5.78,5.78,0,0,1,329.22,26c-1.39,0-1.67-1.64-1.67-3.15,0-4.06,1.82-4,5.15-4.59,0-.34,0-1,0-1.27,0-.7-.06-1.35-1.17-1.35a3.84,3.84,0,0,0-3,1.9h-.19c.12-1,.19-2.5.19-3.27a19.52,19.52,0,0,1,5.3-.7,2.23,2.23,0,0,1,2.46,2.55c0,1.25,0,2.48-.06,3.7s0,3.13,0,3.56a3.33,3.33,0,0,0,.5,1.8v.1A14.81,14.81,0,0,1,333.35,26Zm-2.62-3.61c0,1,.28,1.4.76,1.4a1.57,1.57,0,0,0,1.12-.51c.05-.84.05-1.85.05-3.43C330.82,20.09,330.73,20.67,330.73,22.35Z" class="cls-2"/><path d="M346.74,25.77c-.61,0-1.1,0-2.16.07a46,46,0,0,0,.23-5.72c0-.67.05-1.52,0-2.43,0-1.27-.29-1.66-1-1.66a3.12,3.12,0,0,0-1.4.51c0,.67,0,1.15,0,3.75a36.3,36.3,0,0,0,.21,5.55c-.91-.07-1.55-.07-2-.07s-1.06,0-2.14.07a36.83,36.83,0,0,0,.28-5.84c0-2.07.07-5.46-.47-6.13v-.14a26.05,26.05,0,0,0,4.13-.34v1.32a9.28,9.28,0,0,1,4-1.18c1.23,0,2,.8,2,2.6,0,1.42,0,3,0,4a28.12,28.12,0,0,0,.3,5.75C347.63,25.77,347.58,25.77,346.74,25.77Z" class="cls-2"/><path d="M359.35,15.62c-.37,1.3-.91,3.39-1.77,6.37-.72,2.43-1.08,3.87-1.58,5.24-1.06,2.91-2.68,3.92-4.95,3.92-1,0-1.43-.22-1.41-.58.11-1.22.17-1.83.32-3h.18c.19.34.71.31,1.06.31a2.92,2.92,0,0,0,3.13-2.11c-.73,0-1.4,0-1.51-.19a15.15,15.15,0,0,1-.87-3c-.45-1.88-.88-3.48-1.19-4.73-.36-1.54-.67-2.31-.82-2.82a4,4,0,0,0-.63-1.25v-.12c.87.08,1.87.08,2.62.08s1.28,0,2.23-.08a20,20,0,0,0,.52,4.79c.17.93.43,2.11.73,3.22h.11c.28-1.11.52-2.07.74-3.22.08-.48.67-3.46.32-4.79a11.68,11.68,0,0,0,1.69.08c.6,0,1.17,0,1.73-.08C359.78,14.23,359.52,15,359.35,15.62Z" class="cls-2"/></svg>